<svg width="180" height="24" viewBox="0 0 180 24" fill="none" xmlns="http://www.w3.org/2000/svg">
<g clip-path="url(#clip0_2990_299)">
<path d="M45.3899 4.64996H62.8399C63.9808 4.37117 65.0245 3.78751 65.8594 2.96143C66.6943 2.13534 67.289 1.09788 67.5799 -0.0400391H40.6499C40.9428 1.09691 41.5381 2.13333 42.3727 2.95911C43.2073 3.78488 44.2499 4.36918 45.3899 4.64996Z" fill="white"/>
<path d="M45.3899 13.94H62.8399C63.9823 13.6642 65.0276 13.0816 65.863 12.2551C66.6984 11.4285 67.292 10.3894 67.5799 9.25H40.6499C40.9398 10.3884 41.5341 11.4264 42.3691 12.2527C43.2042 13.0789 44.2485 13.6622 45.3899 13.94Z" fill="white"/>
<path d="M45.3899 23.44H62.8399C63.9823 23.1642 65.0276 22.5816 65.863 21.7551C66.6984 20.9285 67.292 19.8894 67.5799 18.75H40.6499C40.9398 19.8884 41.5341 20.9264 42.3691 21.7527C43.2042 22.5789 44.2485 23.1622 45.3899 23.44Z" fill="white"/>
<path d="M157.81 4.69977H175.26C176.403 4.42502 177.449 3.84278 178.284 3.01605C179.12 2.18932 179.713 1.14965 180 0.00976562H153.07C153.361 1.14769 153.955 2.18514 154.79 3.01123C155.625 3.83732 156.669 4.42098 157.81 4.69977Z" fill="white"/>
<path d="M0 0.0498047C0.294797 1.18095 0.890079 2.2113 1.72278 3.03168C2.55548 3.85205 3.59456 4.43188 4.72998 4.70978H12.07L12.44 4.8598V23.3898H17V4.8598L17.42 4.70978H24.77C25.8962 4.41716 26.925 3.83198 27.7521 3.01361C28.5793 2.19524 29.1754 1.1728 29.48 0.0498047H0Z" fill="white"/>
<path d="M140 23.4398C140.994 23.0583 141.878 22.4383 142.576 21.6343C143.273 20.8304 143.763 19.8673 144 18.8298H123.66V0.0297852H119.1V23.4298L140 23.4398Z" fill="white"/>
<path d="M85.1801 4.65002H101.3C102.453 4.36221 103.515 3.78918 104.389 2.98364C105.263 2.1781 105.92 1.16591 106.3 0.0400391H80.66V13.87H101.66V18.73H85.1801C83.9262 19.0606 82.7566 19.653 81.7483 20.4683C80.74 21.2835 79.9158 22.3032 79.3301 23.46H80.66H106.12V9.27002H85.1801V4.65002Z" fill="white"/>
<path d="M153.78 9.29004V23.44H158.32V14.02H174.84V23.44H179.37V9.31004L153.78 9.29004Z" fill="white"/>
</g>
<defs>
<clipPath id="clip0_2990_299">
<rect width="180" height="23.47" fill="white"/>
</clipPath>
</defs>
</svg>
